<svg width="153" height="46" viewBox="0 0 153 46" fill="none" xmlns="http://www.w3.org/2000/svg">
<path d="M36 4.09375V25.1875C36 34.9375 27.8438 43.0938 18 43.0938C8.0625 43.0938 0 35.0312 0 25.1875V4.09375C0 2.40625 1.3125 1.09375 3 1.09375C4.59375 1.09375 6 2.40625 6 4.09375V25.1875C6 31.75 11.3438 37.0938 18 37.0938C24.5625 37.0938 30 31.75 30 25.1875V4.09375C30 2.40625 31.3125 1.09375 33 1.09375C34.5938 1.09375 36 2.40625 36 4.09375ZM72 4.09375V40.0938C72 41.3125 71.1562 42.4375 69.9375 42.9062C69.6562 43 69.2812 43 69 43C68.0625 43 67.2188 42.625 66.6562 41.9688L42 12.3438V40C42 41.6875 40.5938 43 39 43C37.3125 43 36 41.6875 36 40V4C36 2.78125 36.75 1.65625 37.9688 1.1875C39.0938 0.8125 40.4062 1.1875 41.25 2.125L66 31.75V4C66 2.40625 67.3125 1 69 1C70.5938 1 72 2.40625 72 4.09375ZM102 40C102 41.6875 100.594 43 99 43H75C73.3125 43 72 41.6875 72 40C72 38.4062 73.3125 37 75 37H84V7H75C73.3125 7 72 5.6875 72 4C72 2.40625 73.3125 1 75 1H99C100.594 1 102 2.40625 102 4C102 5.6875 100.594 7 99 7H90V37H99C100.594 37 102 38.4062 102 40Z" fill="white"/>
<path d="M132.188 16C133.312 21.5312 138.188 25.6562 144 25.6562C145.031 25.6562 145.969 25.4688 147 25.1875V44.5C147 45.3438 146.25 46 145.5 46H142.5C141.656 46 141 45.3438 141 44.5V31L129 40H132C133.594 40 135 41.4062 135 43V44.5938C135 45.3438 134.25 46 133.5 46H117C113.625 46 111 43.375 111 40V16C111 14.4062 109.594 13 108 13C106.312 13 105 11.6875 105 10C105 8.40625 106.312 7 108 7C112.969 7 117 11.0312 117 16V24.0625C122.156 16.1875 130.312 16 132.188 16ZM147 7L153 1V13.6562C153 18.625 148.969 22.5625 144 22.5625C139.031 22.5625 135 18.625 135 13.6562V1L141 7H147ZM140.25 14.5C141 14.5 141.75 13.8438 141.75 13C141.75 12.25 141 11.5 140.25 11.5C139.406 11.5 138.75 12.25 138.75 13C138.75 13.8438 139.406 14.5 140.25 14.5ZM147.75 14.5C148.5 14.5 149.25 13.8438 149.25 13C149.25 12.25 148.5 11.5 147.75 11.5C146.906 11.5 146.25 12.25 146.25 13C146.25 13.8438 146.906 14.5 147.75 14.5Z" fill="#FFC900"/>
</svg>
